<?xml version="1.0" encoding="utf-8"?>
<!-- Generator: Adobe Illustrator 19.0.0, SVG Export Plug-In . SVG Version: 6.00 Build 0)  -->
<!DOCTYPE svg PUBLIC "-//W3C//DTD SVG 1.1//EN" "http://www.w3.org/Graphics/SVG/1.1/DTD/svg11.dtd">
<svg version="1.1" id="Layer_1" xmlns="http://www.w3.org/2000/svg" xmlns:xlink="http://www.w3.org/1999/xlink" x="0px" y="0px"
	 viewBox="0 0 320 64" style="enable-background:new 0 0 320 64;" xml:space="preserve">
<style type="text/css">
	.st0{fill:#FFFFFF;}
	.st1{fill:#38609C;}
	.st2{fill:#30A4DC;}
	.st3{fill:#98CBE0;}
	.st4{fill:#80B641;}
	.st5{fill:#84D3EB;}
	.st6{fill:#4E76A4;}
	.st7{fill:#2E4F81;}
	.st8{fill:#2784B3;}
	.st9{fill:#78A1B3;}
	.st10{fill:#6D9A40;}
	.st11{fill:#6AB9CC;}
	.st12{fill:#3D5D81;}
	.st13{fill:#E0E1E0;}
	.st14{fill:#CC3232;}
	.st15{fill:#E9393A;}
	.st16{fill:#D85642;}
	.st17{fill:#B44737;}
	.st18{fill:#0C6DB6;}
	.st19{fill:#F5F6F6;}
	.st20{fill:#E47E25;}
	.st21{fill:#CB6E28;}
</style>
<g id="XMLID_1_">
	<path id="XMLID_135_" class="st0" d="M15.9,1C7.6,1,0.8,7.7,0.8,16s6.7,15.1,15.1,15.1S31,24.4,31,16S24.2,1,15.9,1z"/>
	<path id="XMLID_320_" class="st1" d="M15.9,0c-8.8,0-16,7.2-16,16s7.2,16,16,16s16-7.2,16-16S24.7,0,15.9,0z M19.2,16h-2.3
		c0,3.6,0,8.1,0,8.1h-3.3c0,0,0-4.4,0-8.1h-1.4v-2.8h1.7v-1.8c0-1.3,0.6-3.3,3.5-3.3h2.5v2.7c0,0-1.4,0-1.8,0
		c-0.3,0-0.8,0.1-0.8,0.8v1.8h2.6L19.2,16z"/>
	<path id="XMLID_132_" class="st0" d="M47.9,1c-8.3,0-15.1,6.7-15.1,15.1s6.7,15.1,15.1,15.1S63,24.5,63,16.1S56.2,1,47.9,1z"/>
	<g id="XMLID_317_">
		<path id="XMLID_131_" class="st0" d="M79.9,1c-8.3,0-15.1,6.7-15.1,15.1s6.7,15.1,15.1,15.1S95,24.5,95,16.1S88.2,1,79.9,1z"/>
	</g>
	<path id="XMLID_314_" class="st2" d="M79.9,0c-8.8,0-16,7.2-16,16s7.2,16,16,16s16-7.2,16-16S88.7,0,79.9,0z M86.3,12.7
		c0,0.1,0,0.3,0,0.4c0,4.2-3.3,9.3-9.3,9.3c-1.9,0-3.6-0.5-5.1-1.4c0.3,0,0.5,0,0.8,0c1.4,0,3.1-0.5,4.1-1.3c-1.3,0-2.7-1-3.1-2.3
		c0.3,0,0.4,0.1,0.6,0.1c0.3,0,0.6,0,0.9-0.1c-1.4-0.3-2.7-1.7-2.7-3.2l0,0c0.4,0.1,0.9,0.4,1.4,0.4c-0.9-0.5-1.4-1.7-1.4-2.7
		c0-0.5,0.3-1.2,0.4-1.8c1.7,2,4,3.3,6.8,3.5c-0.1-0.1-0.1-0.5-0.1-0.6c0-1.9,1.4-3.3,3.3-3.3c0.9,0,1.9,0.4,2.4,1
		c0.6-0.1,1.4-0.4,2.2-0.8c-0.3,0.8-0.8,1.4-1.4,1.9c0.6-0.1,1.3-0.3,1.9-0.5C87.5,11.8,86.9,12.3,86.3,12.7z"/>
	<path id="XMLID_128_" class="st0" d="M111.9,1c-8.3,0-15.1,6.7-15.1,15.1s6.7,15.1,15.1,15.1S127,24.5,127,16.1S120.2,1,111.9,1z"
		/>
	<path id="XMLID_127_" class="st0" d="M143.9,1c-8.3,0-15.1,6.7-15.1,15.1s6.7,15.1,15.1,15.1c8.4,0,15.1-6.7,15.1-15.1
		S152.2,1,143.9,1z"/>
	<path id="XMLID_126_" class="st0" d="M175.9,1c-8.3,0-15.1,6.7-15.1,15.1s6.7,15.1,15.1,15.1c8.3,0,15.1-6.7,15.1-15.1
		S184.2,1,175.9,1z"/>
	<g id="XMLID_300_">
		<g id="XMLID_301_">
			<path id="XMLID_125_" class="st3" d="M142.7,12.4c0.8,0.1,1.3-0.9,1.2-1.9c0-0.9-0.4-1.9-1.2-1.9c-0.4,0-0.8,0.3-0.9,0.6
				C141.3,10.2,141.5,12.3,142.7,12.4z"/>
			<path id="XMLID_124_" class="st3" d="M140.1,14c0.3,0.1,0.9,0.3,1.2,0.4c-0.1-0.3-0.3-0.4-0.3-0.5c0.8,0.5,1.8,1,2.8,1.2
				c1.8,0.1,3.1-0.5,4.1-1.2c-0.1,0.3-0.4,0.4-0.5,0.5c0.4,0,0.6-0.1,0.9-0.3c0.1,0,0.6-0.3,0.6-0.5c0-0.1-0.3-0.3-0.4-0.4
				c-1.4-0.9-3.6-1.2-5.8-0.8c-0.8,0.1-1.7,0.3-2.3,0.6c-0.3,0.1-0.8,0.4-0.8,0.6C139.9,13.8,140.1,13.8,140.1,14z"/>
			<path id="XMLID_123_" class="st3" d="M145.9,12.4c0.1,0,0.4,0,0.5,0c1.2-0.4,1.2-3.2,0-3.6c-0.1,0-0.3,0-0.4,0
				c-0.4,0-0.6,0.3-0.8,0.5C144.7,10.1,144.9,12.2,145.9,12.4z"/>
			<path id="XMLID_122_" class="st3" d="M138,23.2L138,23.2c-0.5,0-0.7,0.1-1.1,0.4c-0.3,0.1-0.5,0.3-0.3,0.5c0.1,0,0.3-0.1,0.5-0.1
				c-0.3,0.1-0.5,0.4-0.6,0.6c-0.1,0.3,0.1,0.5,0.4,0.6c0.8,0.5,2.2,0.6,3.6,0.6c1.2,0,2.4-0.3,2.8-0.9c-1.8-0.3-3.3-0.8-4.5-1.7
				C138.4,23.4,138.1,23.2,138,23.2z"/>
			<path id="XMLID_304_" class="st3" d="M143.9,0c-8.8,0-16,7.2-16,16s7.2,16,16,16c8.8,0,16-7.2,16-16S152.7,0,143.9,0z
				 M153.5,21.5c-0.1,0.1-0.3,0.3-0.4,0.3c-0.3,0-0.5-0.4-0.6-0.5c-0.1-0.3-0.3-0.5-0.4-0.8c-0.1,0.1-0.3,0.4-0.4,0.6
				c-0.3,0.8-0.6,1.3-1.2,1.9c0.5,0.3,0.9,0.5,1.3,0.8c0.3,0.3,0.5,0.5,0.5,0.9c0,0.3-0.3,0.5-0.5,0.6c-1.3,0.9-4.2,0.8-6,0.3
				c-0.3-0.1-0.6-0.3-0.9-0.3c-0.1,0-0.3,0-0.4,0s-0.4,0-0.4,0c-0.1,0-0.1,0.1-0.3,0.1c-0.8,0.4-1.4,0.6-2.6,0.8
				c-1.2,0.1-2.6,0-3.5-0.3c-0.5-0.1-1.2-0.5-1.2-1c0-0.3,0-0.6,0.1-0.9c0.3-0.5,0.8-0.6,1.7-0.8c0-0.1-0.3-0.3-0.3-0.3
				c-0.6-0.5-1.2-1.3-1.7-2.3c0-0.1-0.1-0.3-0.1-0.5c-0.1,0.1-0.1,0.4-0.3,0.5c-0.3,0.4-0.5,0.6-0.9,0.9c-0.1,0-0.3,0.1-0.4,0.1
				c-0.3,0-0.4-0.5-0.4-0.9c-0.1-1.3,0.3-2.4,0.6-3.2c0.5-1,1.3-1.8,2.2-2.4c-0.3-0.6,0-1.3,0.3-1.8c0-0.3,0-0.5,0.1-0.8
				c0-0.1,0.1-0.3,0.3-0.4c0-0.1,0-0.3,0-0.4c0.1-1.7,1.2-3.2,2.2-4.1c0.5-0.5,1-0.9,1.8-1.3c0.6-0.3,1.7-0.5,2.6-0.5
				c0.4,0,0.8,0,1.2,0c3.1,0.3,5,1.7,5.9,4.1c0.1,0.4,0.3,0.8,0.4,1.2c0.1,0.4,0.1,0.9,0.3,1.3c0.1,0.3,0.3,0.5,0.4,0.8
				c0.3,0.5,0.3,1.3,0,1.9c0.4,0.6,0.9,1.4,1.3,2.3c0.4,0.8,0.6,1.8,0.6,2.9C153.9,20.5,153.8,21.1,153.5,21.5z"/>
			<path id="XMLID_119_" class="st3" d="M145.7,25.2c0.5,0.4,1.8,0.6,2.9,0.6c1.2,0,2.4-0.3,3.1-0.8c0.1-0.1,0.3-0.4,0.4-0.5
				c0.1-0.8-0.8-0.6-1.4-0.6c0.1-0.3,0.4-0.3,0.6-0.3c-0.3-0.3-0.6-0.5-1.2-0.5C149,24.2,147.6,25,145.7,25.2z"/>
			<path id="XMLID_118_" class="st3" d="M142,18.4c0,0.3,0,0.6,0,1c0,0.4,0.1,0.8,0,1c0,0.3-0.3,0.5-0.4,0.5c-0.3,0.1-0.8,0.1-1,0.1
				c-0.6,0-1.2-0.4-1.4-0.9c-0.1-0.1,0-0.4-0.1-0.6c0-0.8,0-1.4,0.1-2.3c-0.3-0.3-0.6-0.4-1-0.6c-0.5,0.5-0.8,2-0.8,2.9
				c0,0.3,0,0.5,0.1,0.9c0.1,0.8,0.5,1.4,1,2c0.5,0.5,1,0.9,1.7,1.3c1.3,0.8,3.1,1.2,4.9,1.2c0.6,0,1.2-0.1,1.9-0.3
				c0.5-0.3,1.2-0.5,1.7-0.8c0.5-0.3,1-0.8,1.3-1.2c0.4-0.5,0.9-1.2,1-2c0.4-1.7-0.3-2.9-0.9-4C148.1,18.2,145.1,19.1,142,18.4z"/>
		</g>
	</g>
	<g id="XMLID_288_">
		<g id="XMLID_289_">
			<path id="XMLID_297_" class="st4" d="M173.5,15c-1.7,0.1-2.7,0.5-3.8,1c-0.9,0.5-2,1.4-2.3,2.8c-0.6,2.9,2.7,4.4,5.1,4.5
				c2.8,0.1,5.5-0.8,6.8-2.3c0.5-0.5,0.9-1.3,0.9-2.3C180.1,15.9,176.4,14.8,173.5,15z M170,20.9c-0.8-2.3,1.2-4,3.2-4.1
				c1.8-0.1,3.1,0.6,3.3,1.9C177.9,22.4,171.3,24.2,170,20.9z"/>
			<path id="XMLID_115_" class="st4" d="M172.2,19.2c-1.4,0.3-1.2,2.4,0.4,2C173.6,21,173.7,18.8,172.2,19.2z"/>
			<path id="XMLID_291_" class="st4" d="M175.9,0c-8.8,0-16,7.2-16,16s7.2,16,16,16c8.8,0,16-7.2,16-16S184.7,0,175.9,0z M184,19.1
				c-0.1,0.5-0.4,1.3-0.8,1.9c-2.6,3.5-10.1,5.1-14.8,2.3c-1.7-0.9-3.2-2.3-2.9-4.7c0.3-2.3,1.8-4,3.2-5.5c1.4-1.4,2.9-2.6,5-3.1
				c2.3-0.5,2.8,1.3,2.3,3.1c1.3-0.1,4-1.4,5.2-0.1c0.5,0.6,0.3,1.8,0,2.6C182.4,16.3,184.2,16.6,184,19.1z M182.4,12.9
				c0-0.5-0.4-1-0.8-1.2c-0.6-0.4-1.8,0.3-1.8-0.8c0-0.6,0.6-0.6,0.9-0.6c1.4-0.1,2.7,0.9,2.8,2.3c0.1,0.9-0.1,1.8-0.6,1.8
				C182.2,14.2,182.4,13.7,182.4,12.9z M185.6,15.2c-1.3,0.1-0.6-1.3-0.5-2.2c0-2.4-2-4.1-4.1-4.1c-0.5,0-2,0.4-1.8-0.8
				c0.1-0.5,0.5-0.5,1-0.5c3.5-0.4,6.1,1.9,6.3,5.1C186.7,13.7,186.4,15.2,185.6,15.2z"/>
			<path id="XMLID_110_" class="st4" d="M173.6,19.2c0.3,0.5,0.9,0.1,0.8-0.3C174.5,18.6,173.6,18.6,173.6,19.2z"/>
		</g>
	</g>
	<path id="XMLID_109_" class="st0" d="M207.9,1c-8.3,0-15.1,6.7-15.1,15.1s6.7,15.1,15.1,15.1c8.4,0,15.1-6.7,15.1-15.1
		S216.2,1,207.9,1z"/>
	<path id="XMLID_108_" class="st0" d="M239.9,1c-8.3,0-15.1,6.7-15.1,15.1s6.7,15.1,15.1,15.1c8.4,0,15.1-6.7,15.1-15.1
		S248.2,1,239.9,1z"/>
	<path id="XMLID_282_" class="st5" d="M207.9,0c-8.8,0-16,7.2-16,16s7.2,16,16,16c8.8,0,16-7.2,16-16S216.7,0,207.9,0z M207.1,14.7
		c-1.2,2.6-2.2,4.6-3.2,7.2c-0.5,1.2-0.9,2.6-2,3.2c-4.1,0.3-1-4.2-0.4-5.9c-0.9-1.8-2.2-3.8-3.2-5.8c-0.5-0.9-1.8-2.6-0.5-3.5
		c0.4-0.4,1.4-0.4,2,0c1.4,1,2.3,4.1,3.5,5.5c0.4-0.8,0.8-1.8,1.3-2.8c0.4-0.9,0.8-2.3,1.3-2.7c0.9-0.6,2.4-0.1,2.7,0.9
		C208.7,12,207.6,13.6,207.1,14.7z M216.7,21c-0.8-0.1-1.4-1.2-2.2-1.9c-0.8-0.6-1.7-1.3-2.2-1.9c-0.4-0.6-0.3,0.4-0.3,1
		s0,1.4,0,1.8c-0.1,0.6-0.4,0.9-1,1c-0.3,0-0.5,0-0.9,0c-0.6-0.1-0.9-0.5-1-1c0-2.7,0-5.4,0-7.9c0-1.7,2.9-1.7,2.9,0
		c0,0.9,0,1.9,0,2.8c0.4-0.3,0.8-0.6,1-1c0.3-0.3,0.5-0.5,0.8-0.8c0.5-0.4,0.9-0.9,1.3-1.3c0.5-1.2,2.8-1,2.9,0.4
		c0.3,2-2.6,2.8-3.1,3.8c0.8,1,2.6,1.8,3.1,2.9C218.9,19.7,218.3,21.2,216.7,21z"/>
	<g id="XMLID_273_">
		<g id="XMLID_274_">
			<path id="XMLID_279_" class="st6" d="M239.9,0c-8.8,0-16,7.2-16,16s7.2,16,16,16c8.8,0,16-7.2,16-16S248.7,0,239.9,0z
				 M249.2,21.6c0,2-1.7,3.7-3.7,3.7h-11.4c-2,0-3.7-1.7-3.7-3.7V10.4c0-2,1.7-3.7,3.7-3.7h11.4c2,0,3.7,1.7,3.7,3.7V21.6z"/>
			<path id="XMLID_275_" class="st6" d="M242.7,15.5L242.7,15.5c0.4-0.3,0.8-0.5,1-0.9c0.3-0.4,0.4-0.9,0.4-1.4
				c0-0.4-0.1-0.8-0.3-1.2c-0.1-0.4-0.5-0.6-0.8-0.8c-0.4-0.1-0.8-0.3-1.2-0.4c-0.4,0-1-0.1-1.9-0.1h-3.8v10.8h4.2
				c0.8,0,1.3-0.1,1.9-0.3c0.6-0.2,0.9-0.4,1.3-0.6c0.4-0.3,0.6-0.6,0.8-1c0.3-0.4,0.3-0.9,0.3-1.4c0-0.8-0.3-1.3-0.6-1.8
				C243.9,15.9,243.4,15.6,242.7,15.5z M239,12.5L239,12.5c0.6,0,0.9,0,1.1,0c0.3,0,0.4,0,0.6,0.1c0.1,0.1,0.3,0.3,0.4,0.4
				c0.1,0.1,0.1,0.4,0.1,0.5c0,0.3,0,0.4-0.1,0.6c-0.1,0.1-0.3,0.3-0.4,0.4c-0.1,0.1-0.4,0.1-0.5,0.1s-0.5,0-0.9,0h-0.4L239,12.5
				L239,12.5z M241.9,18.7c-0.1,0.3-0.3,0.4-0.5,0.5c-0.3,0.1-0.5,0.1-0.8,0.1s-0.8,0-1.4,0h-0.1v-2.7h0.5c0.5,0,0.9,0,1.2,0
				c0.3,0,0.5,0,0.6,0.1c0.3,0.1,0.5,0.3,0.6,0.4c0.1,0.1,0.3,0.4,0.3,0.8C242.2,18.3,242.1,18.6,241.9,18.7z"/>
		</g>
	</g>
	<path id="XMLID_99_" class="st0" d="M15.9,33C7.6,33,0.8,39.7,0.8,48.1s6.7,15.1,15.1,15.1S31,56.5,31,48.1S24.2,33,15.9,33z"/>
	<path id="XMLID_269_" class="st7" d="M15.9,32c-8.8,0-16,7.2-16,16s7.2,16,16,16s16-7.2,16-16S24.7,32,15.9,32z M19.2,48h-2.3
		c0,3.6,0,8.1,0,8.1h-3.3c0,0,0-4.4,0-8.1h-1.4v-2.8h1.7v-1.9c0-1.3,0.6-3.3,3.5-3.3h2.5v2.7c0,0-1.4,0-1.8,0
		c-0.3,0-0.8,0.1-0.8,0.8v1.8h2.6L19.2,48z"/>
	<path id="XMLID_96_" class="st0" d="M47.9,33c-8.3,0-15.1,6.7-15.1,15.1s6.7,15.1,15.1,15.1S63,56.5,63,48.1S56.2,33,47.9,33z"/>
	<g id="XMLID_266_">
		<path id="XMLID_95_" class="st0" d="M79.9,33c-8.3,0-15.1,6.7-15.1,15.1s6.7,15.1,15.1,15.1S95,56.5,95,48.1S88.2,33,79.9,33z"/>
	</g>
	<path id="XMLID_263_" class="st8" d="M79.9,32c-8.8,0-16,7.2-16,16s7.2,16,16,16s16-7.2,16-16S88.7,32,79.9,32z M86.3,44.7
		c0,0.1,0,0.3,0,0.4c0,4.2-3.3,9.3-9.3,9.3c-1.9,0-3.6-0.5-5.1-1.4c0.3,0,0.5,0,0.8,0c1.4,0,3.1-0.5,4.1-1.3c-1.3,0-2.7-1-3.1-2.3
		c0.3,0,0.4,0.1,0.6,0.1c0.3,0,0.6,0,0.9-0.1c-1.4-0.3-2.7-1.7-2.7-3.2l0,0c0.4,0.3,0.9,0.4,1.4,0.4c-0.9-0.6-1.4-1.7-1.4-2.7
		c0-0.6,0.3-1.2,0.4-1.8c1.7,2,4,3.3,6.8,3.5c-0.1-0.3-0.1-0.5-0.1-0.6c0-1.8,1.4-3.3,3.3-3.3c0.9,0,1.9,0.4,2.4,1
		c0.6-0.1,1.4-0.4,2.2-0.8c-0.3,0.8-0.8,1.3-1.4,1.9c0.6-0.1,1.3-0.3,1.9-0.5C87.5,43.8,86.9,44.3,86.3,44.7z"/>
	<path id="XMLID_92_" class="st0" d="M111.9,33c-8.3,0-15.1,6.7-15.1,15.1s6.7,15.1,15.1,15.1S127,56.5,127,48.1S120.2,33,111.9,33z
		"/>
	<path id="XMLID_91_" class="st0" d="M143.9,33c-8.3,0-15.1,6.7-15.1,15.1s6.7,15.1,15.1,15.1c8.4,0,15.1-6.7,15.1-15.1
		S152.2,33,143.9,33z"/>
	<path id="XMLID_90_" class="st0" d="M175.9,33c-8.3,0-15.1,6.7-15.1,15.1s6.7,15.1,15.1,15.1c8.3,0,15.1-6.7,15.1-15.1
		S184.2,33,175.9,33z"/>
	<g id="XMLID_249_">
		<g id="XMLID_250_">
			<path id="XMLID_89_" class="st9" d="M142.7,44.4c0.8,0.1,1.3-0.9,1.2-1.9c0-0.9-0.4-1.9-1.2-1.9c-0.4,0-0.8,0.3-0.9,0.6
				C141.3,42.2,141.5,44.3,142.7,44.4z"/>
			<path id="XMLID_88_" class="st9" d="M140.1,46c0.3,0.1,0.9,0.3,1.2,0.4c-0.1-0.3-0.3-0.4-0.3-0.5c0.8,0.5,1.8,1,2.8,1.2
				c1.8,0.1,3.1-0.5,4.1-1.2c-0.1,0.3-0.4,0.4-0.5,0.5c0.4,0,0.6-0.1,0.9-0.3c0.1,0,0.6-0.3,0.6-0.5c0-0.1-0.3-0.3-0.4-0.4
				c-1.4-0.9-3.6-1.2-5.8-0.8c-0.8,0.1-1.7,0.3-2.3,0.6c-0.3,0.1-0.8,0.4-0.8,0.6C139.9,45.8,140.1,45.8,140.1,46z"/>
			<path id="XMLID_87_" class="st9" d="M145.9,44.4c0.1,0,0.4,0,0.5,0c1.2-0.4,1.2-3.2,0-3.6c-0.1,0-0.3,0-0.4,0
				c-0.4,0-0.6,0.3-0.8,0.5C144.7,42.1,144.9,44.2,145.9,44.4z"/>
			<path id="XMLID_86_" class="st9" d="M138,55.2L138,55.2c-0.5,0-0.7,0.1-1.1,0.4c-0.3,0.1-0.5,0.3-0.3,0.5c0.1,0,0.3-0.1,0.5-0.1
				c-0.3,0.1-0.5,0.4-0.6,0.6c-0.1,0.3,0.1,0.5,0.4,0.6c0.8,0.5,2.2,0.6,3.6,0.6c1.2,0,2.4-0.3,2.8-0.9c-1.8-0.3-3.3-0.8-4.5-1.7
				C138.4,55.4,138.1,55.2,138,55.2z"/>
			<path id="XMLID_253_" class="st9" d="M143.9,32c-8.8,0-16,7.2-16,16s7.2,16,16,16c8.8,0,16-7.2,16-16S152.7,32,143.9,32z
				 M153.5,53.5c-0.1,0.1-0.3,0.3-0.4,0.3c-0.3,0-0.5-0.4-0.6-0.5c-0.1-0.3-0.3-0.5-0.4-0.8c-0.1,0.1-0.3,0.4-0.4,0.6
				c-0.3,0.8-0.6,1.3-1.2,1.9c0.5,0.3,0.9,0.5,1.3,0.8c0.3,0.3,0.5,0.5,0.5,0.9c0,0.3-0.3,0.5-0.5,0.6c-1.3,0.9-4.2,0.8-6,0.3
				c-0.3-0.1-0.6-0.3-0.9-0.3c-0.1,0-0.3,0-0.4,0s-0.4,0-0.4,0c-0.1,0-0.1,0.1-0.3,0.1c-0.8,0.4-1.4,0.6-2.6,0.8
				c-1.2,0.1-2.6,0-3.5-0.3c-0.5-0.1-1.2-0.5-1.2-1c0-0.3,0-0.6,0.1-0.9c0.3-0.5,0.8-0.6,1.7-0.8c0-0.1-0.3-0.3-0.3-0.3
				c-0.6-0.5-1.2-1.3-1.7-2.3c0-0.1-0.1-0.3-0.1-0.5c-0.1,0.1-0.1,0.4-0.3,0.5c-0.3,0.4-0.5,0.6-0.9,0.9c-0.1,0-0.3,0.1-0.4,0.1
				c-0.3,0-0.4-0.5-0.4-0.9c-0.1-1.3,0.3-2.4,0.6-3.2c0.5-1,1.3-1.8,2.2-2.4c-0.3-0.6,0-1.3,0.3-1.8c0-0.3,0-0.5,0.1-0.8
				c0-0.1,0.1-0.3,0.3-0.4c0-0.1,0-0.3,0-0.4c0.1-1.7,1.2-3.2,2.2-4.1c0.5-0.5,1-0.9,1.8-1.3c0.6-0.3,1.7-0.5,2.6-0.5
				c0.4,0,0.8,0,1.2,0c3.1,0.3,5,1.7,5.9,4.1c0.1,0.4,0.3,0.8,0.4,1.2c0.1,0.4,0.1,0.9,0.3,1.3c0.1,0.3,0.3,0.5,0.4,0.8
				c0.3,0.5,0.3,1.3,0,1.9c0.4,0.6,0.9,1.4,1.3,2.3c0.4,0.8,0.6,1.8,0.6,2.9C153.9,52.5,153.8,53.1,153.5,53.5z"/>
			<path id="XMLID_83_" class="st9" d="M145.7,57.2c0.5,0.4,1.8,0.6,2.9,0.6c1.2,0,2.4-0.3,3.1-0.8c0.1-0.1,0.3-0.4,0.4-0.5
				c0.1-0.8-0.8-0.6-1.4-0.6c0.1-0.3,0.4-0.3,0.6-0.3c-0.3-0.3-0.6-0.5-1.2-0.5C149,56.2,147.6,57,145.7,57.2z"/>
			<path id="XMLID_82_" class="st9" d="M142,50.4c0,0.3,0,0.6,0,1c0,0.4,0.1,0.8,0,1c0,0.3-0.3,0.5-0.4,0.5c-0.3,0.1-0.8,0.1-1,0.1
				c-0.6,0-1.2-0.4-1.4-0.9c-0.1-0.1,0-0.4-0.1-0.6c0-0.8,0-1.4,0.1-2.3c-0.3-0.3-0.6-0.4-1-0.6c-0.5,0.5-0.8,2-0.8,2.9
				c0,0.3,0,0.5,0.1,0.9c0.1,0.8,0.5,1.4,1,2c0.5,0.5,1,0.9,1.7,1.3c1.3,0.8,3.1,1.2,4.9,1.2c0.6,0,1.2-0.1,1.9-0.3
				c0.5-0.3,1.2-0.5,1.7-0.8c0.5-0.3,1-0.8,1.3-1.2c0.4-0.5,0.9-1.2,1-2c0.4-1.7-0.3-2.9-0.9-4C148.1,50.2,145.1,51.1,142,50.4z"/>
		</g>
	</g>
	<g id="XMLID_237_">
		<g id="XMLID_238_">
			<path id="XMLID_246_" class="st10" d="M173.5,47c-1.7,0.1-2.7,0.5-3.8,1c-0.9,0.5-2,1.4-2.3,2.8c-0.6,2.9,2.7,4.4,5.1,4.5
				c2.8,0.1,5.5-0.8,6.8-2.3c0.5-0.5,0.9-1.3,0.9-2.3C180.1,47.9,176.4,46.8,173.5,47z M170,52.7c-0.8-2.3,1.2-4,3.2-4.1
				c1.8-0.1,3.1,0.6,3.3,1.9C177.9,54.4,171.3,56.2,170,52.7z"/>
			<path id="XMLID_79_" class="st10" d="M172.2,51.2c-1.4,0.3-1.2,2.4,0.4,2C173.6,53,173.7,50.8,172.2,51.2z"/>
			<path id="XMLID_240_" class="st10" d="M175.9,32c-8.8,0-16,7.2-16,16s7.2,16,16,16c8.8,0,16-7.2,16-16S184.7,32,175.9,32z
				 M184,51.1c-0.1,0.5-0.4,1.3-0.8,1.9c-2.6,3.5-10.1,5.1-14.8,2.3c-1.7-0.9-3.2-2.3-2.9-4.9c0.3-2.3,1.8-4,3.2-5.5
				c1.4-1.4,2.9-2.6,5-3.1c2.3-0.5,2.8,1.3,2.3,3.1c1.3-0.1,4-1.4,5.2-0.1c0.5,0.6,0.3,1.8,0,2.6C182.4,48.3,184.2,48.6,184,51.1z
				 M182.4,44.9c0-0.5-0.4-1-0.8-1.2c-0.6-0.3-1.8,0.3-1.8-0.6c0-0.6,0.6-0.6,0.9-0.6c1.4-0.1,2.7,0.9,2.8,2.3
				c0.1,0.9-0.1,1.8-0.6,1.8C182.2,46.2,182.4,45.7,182.4,44.9z M185.6,47.2c-1.3,0.1-0.6-1.3-0.5-2.2c0-2.4-2-4.1-4.1-4.1
				c-0.5,0-2,0.4-1.8-0.8c0.1-0.5,0.5-0.5,1-0.5c3.5-0.4,6.1,1.9,6.3,5.1C186.7,45.7,186.4,47.2,185.6,47.2z"/>
			<path id="XMLID_74_" class="st10" d="M173.6,51.2c0.3,0.5,0.9,0.1,0.8-0.3C174.5,50.6,173.6,50.6,173.6,51.2z"/>
		</g>
	</g>
	<path id="XMLID_73_" class="st0" d="M207.9,33c-8.3,0-15.1,6.7-15.1,15.1s6.7,15.1,15.1,15.1c8.4,0,15.1-6.7,15.1-15.1
		S216.2,33,207.9,33z"/>
	<path id="XMLID_72_" class="st0" d="M239.9,33c-8.3,0-15.1,6.7-15.1,15.1s6.7,15.1,15.1,15.1c8.4,0,15.1-6.7,15.1-15.1
		S248.2,33,239.9,33z"/>
	<path id="XMLID_231_" class="st11" d="M207.9,32c-8.8,0-16,7.2-16,16s7.2,16,16,16c8.8,0,16-7.2,16-16S216.7,32,207.9,32z
		 M207.1,46.7c-1.2,2.6-2.2,4.6-3.2,7.2c-0.5,1.2-0.9,2.6-2,3.2c-4.1,0.3-1-4.2-0.4-5.9c-0.9-1.8-2.2-3.8-3.2-5.8
		c-0.5-0.9-1.8-2.6-0.5-3.5c0.4-0.4,1.4-0.4,2,0c1.4,1,2.3,4.1,3.5,5.5c0.4-0.8,0.8-1.8,1.3-2.8c0.4-0.9,0.8-2.3,1.3-2.7
		c0.9-0.6,2.4-0.1,2.7,0.9C208.7,44,207.6,45.6,207.1,46.7z M216.7,53c-0.8-0.1-1.4-1.2-2.2-1.9c-0.8-0.6-1.7-1.3-2.2-1.9
		c-0.4-0.6-0.3,0.4-0.3,1s0,1.4,0,1.8c-0.1,0.6-0.4,0.9-1,1c-0.3,0-0.5,0-0.9,0c-0.6-0.1-0.9-0.5-1-1c0-2.7,0-5.4,0-8.1
		c0-1.7,2.9-1.7,2.9,0c0,0.9,0,1.9,0,2.8c0.4-0.3,0.8-0.6,1-1c0.3-0.3,0.5-0.5,0.8-0.8c0.5-0.4,0.9-0.9,1.3-1.3
		c0.5-1.2,2.8-1,2.9,0.4c0.3,2-2.6,2.8-3.1,3.8c0.8,1,2.6,1.8,3.1,2.9C218.9,51.7,218.3,53.2,216.7,53z"/>
	<g id="XMLID_222_">
		<g id="XMLID_223_">
			<path id="XMLID_228_" class="st12" d="M239.9,32c-8.8,0-16,7.2-16,16s7.2,16,16,16c8.8,0,16-7.2,16-16S248.7,32,239.9,32z
				 M249.2,53.6c0,2-1.7,3.7-3.7,3.7h-11.4c-2,0-3.7-1.7-3.7-3.7V42.2c0-2,1.7-3.7,3.7-3.7h11.4c2,0,3.7,1.7,3.7,3.7V53.6z"/>
			<path id="XMLID_224_" class="st12" d="M242.7,47.5L242.7,47.5c0.4-0.3,0.8-0.5,1-0.9c0.3-0.4,0.4-0.9,0.4-1.4
				c0-0.4-0.1-0.8-0.3-1.2c-0.1-0.4-0.5-0.6-0.8-0.8c-0.4-0.1-0.8-0.3-1.2-0.4c-0.4,0-1-0.1-1.9-0.1h-3.8v10.8h4.2
				c0.8,0,1.3-0.1,1.9-0.3c0.5-0.1,0.9-0.4,1.3-0.6c0.4-0.2,0.6-0.6,0.8-1c0.3-0.4,0.3-0.9,0.3-1.4c0-0.8-0.3-1.3-0.6-1.8
				C243.9,47.9,243.4,47.6,242.7,47.5z M239,44.5L239,44.5c0.6,0,0.9,0,1.1,0c0.3,0,0.4,0,0.6,0.1c0.1,0.1,0.3,0.3,0.4,0.4
				s0.1,0.4,0.1,0.5c0,0.3,0,0.4-0.1,0.6c-0.1,0.1-0.3,0.3-0.4,0.4s-0.4,0.1-0.5,0.1s-0.5,0-0.9,0h-0.4L239,44.5L239,44.5L239,44.5z
				 M241.9,50.7c-0.1,0.3-0.3,0.4-0.5,0.5c-0.3,0.1-0.5,0.1-0.8,0.1s-0.8,0-1.4,0h-0.1v-2.7h0.5c0.5,0,0.9,0,1.2,0
				c0.3,0,0.5,0,0.6,0.1c0.3,0.1,0.5,0.3,0.6,0.4c0.1,0.1,0.3,0.4,0.3,0.8C242.2,50.3,242.1,50.6,241.9,50.7z"/>
		</g>
	</g>
	<g id="XMLID_217_">
		<path id="XMLID_63_" class="st0" d="M271.9,30.5c-8,0-14.5-6.5-14.5-14.5s6.5-14.5,14.5-14.5S286.4,8,286.4,16
			S279.9,30.5,271.9,30.5z"/>
		<path id="XMLID_218_" class="st13" d="M271.9,3c7.2,0,13,5.8,13,13s-5.8,13-13,13c-7.2,0-13-5.8-13-13S264.7,3,271.9,3 M271.9,0
			c-8.8,0-16,7.2-16,16s7.2,16,16,16c8.8,0,16-7.2,16-16S280.7,0,271.9,0L271.9,0z"/>
	</g>
	<path id="XMLID_60_" class="st0" d="M303.9,30.5c-8,0-14.5-6.5-14.5-14.5s6.5-14.5,14.5-14.5S318.4,8,318.4,16
		S311.9,30.5,303.9,30.5z"/>
	<g id="XMLID_200_">
		<path id="XMLID_59_" class="st14" d="M111.5,45.1c0,0,0.4,0,0.4-0.5v-2.2c0,0,0-0.5-0.4-0.5c0,0-0.4,0-0.4,0.5v2.2
			C111.1,45.2,111.5,45.1,111.5,45.1z"/>
		<path id="XMLID_58_" class="st14" d="M110.7,53.4c0,0.1-0.3,0.4-0.5,0.4c-0.2,0-0.3-0.1-0.3-0.1V50h-0.8v3.7
			c0,0.5,0.1,0.9,0.6,0.9c0.5,0,0.9-0.5,0.9-0.5v0.5h0.8V50h-0.8L110.7,53.4L110.7,53.4L110.7,53.4z"/>
		<path id="XMLID_211_" class="st14" d="M113.8,49.8c-0.4,0-0.8,0.5-0.8,0.5v-1.9h-0.8v6h0.8v-0.5c0.1,0.3,0.5,0.5,1,0.5
			s0.6-0.9,0.6-0.9v-2.9C114.6,50,114.2,49.8,113.8,49.8z M113.8,53.4c0,0,0,0.4-0.4,0.4c0,0-0.3,0-0.4-0.1v-2.8
			c0,0,0.1-0.1,0.4-0.1c0.3,0,0.4,0.1,0.4,0.5V53.4z"/>
		<path id="XMLID_55_" class="st14" d="M106.1,48.4v0.9h0.9v5.1h0.9v-5.1h1v-0.9H106.1z"/>
		<path id="XMLID_207_" class="st14" d="M116.9,52.9v0.4c0,0,0,0.5-0.4,0.5s-0.5-0.3-0.5-0.5v-0.9h1.7v-1.3c0,0,0-1.2-1.2-1.2
			c-1,0-1.2,0.5-1.2,0.8c0,0-0.1,0.3-0.1,0.4v2.2c0,0,0,1.3,1.3,1.3c0,0,0.9-0.1,1-0.9c0.1-0.5,0-0.8,0-0.8L116.9,52.9L116.9,52.9z
			 M116.1,51.1c0-0.1,0.1-0.5,0.4-0.5c0.3,0,0.4,0.5,0.4,0.5v0.5h-0.8V51.1z"/>
		<path id="XMLID_201_" class="st14" d="M111.9,32c-8.8,0-16,7.2-16,16s7.2,16,16,16s16-7.2,16-16S120.7,32,111.9,32z M113.4,41.3
			h0.8v3.6c0,0,0,0.3,0.3,0.3c0,0,0.4-0.1,0.5-0.4v-3.5h0.8v4.5H115v-0.5c0,0-0.5,0.5-0.9,0.5c-0.4,0-0.6-0.3-0.6-0.6v-3.9
			L113.4,41.3L113.4,41.3z M110.4,42.5c0-0.1,0-0.4,0-0.4c0.1-0.6,0.6-0.8,0.9-0.8c0.1,0,0.3,0,0.4,0c0.3,0,0.8,0.3,1,0.8
			c0,0,0,0.3,0,0.4v2.2c0,0,0,0.4-0.3,0.6c-0.1,0.3-0.4,0.4-0.8,0.5c-0.1,0-0.3,0-0.3,0c-0.4,0-0.6-0.3-0.9-0.5
			c-0.3-0.3-0.3-0.6-0.3-0.6v-2.2H110.4z M108.2,39.8l0.6,2.3l0.6-2.3h0.9l-1.2,3.6v2.4h-0.9v-2.4l-1.2-3.6H108.2z M118.4,55.4
			c-0.1,0.1-0.4,0.5-0.8,0.6c-0.9,0.1-3.3,0.3-5.6,0.3c-1.7,0-4.2,0-5.2-0.1c-1.9-0.1-1.8-2.6-1.8-4.6c0-0.9,0.1-2,0.3-3.1
			c0.4-1.7,1.4-1.4,2.9-1.5c0.1,0,1.4,0,3.7,0c3.6,0,4.6,0,5.6,0.1c1.5,0.3,1.4,2.6,1.4,4.5C118.9,53.8,118.9,54.7,118.4,55.4z"/>
	</g>
	<g id="XMLID_184_">
		<path id="XMLID_47_" class="st15" d="M111.5,13.1c0,0,0.4,0,0.4-0.5v-2c0,0,0-0.5-0.4-0.5c0,0-0.4,0-0.4,0.5v2.2
			C111.1,13.2,111.5,13.1,111.5,13.1z"/>
		<path id="XMLID_46_" class="st15" d="M110.7,21.4c0,0.1-0.3,0.4-0.5,0.4c-0.2,0-0.3-0.1-0.3-0.1V18h-0.8v3.7
			c0,0.5,0.1,0.9,0.6,0.9c0.5,0,0.9-0.5,0.9-0.5v0.5h0.8V18h-0.8L110.7,21.4L110.7,21.4z"/>
		<path id="XMLID_195_" class="st15" d="M113.8,17.8c-0.4,0-0.8,0.5-0.8,0.5v-1.9h-0.8v6h0.8v-0.5c0.1,0.3,0.5,0.5,1,0.5
			s0.6-0.9,0.6-0.9v-2.9C114.6,18,114.2,17.8,113.8,17.8z M113.8,21.4c0,0,0,0.4-0.4,0.4c0,0-0.3,0-0.4-0.1v-2.8
			c0,0,0.1-0.1,0.4-0.1c0.3,0,0.4,0.1,0.4,0.5V21.4z"/>
		<path id="XMLID_43_" class="st15" d="M106.1,16.4v0.9h0.9v5.1h0.9v-5.1h1v-0.9H106.1z"/>
		<path id="XMLID_191_" class="st15" d="M116.9,20.9v0.4c0,0,0,0.5-0.4,0.5s-0.5-0.3-0.5-0.5v-0.9h1.7v-1.3c0,0,0-1.2-1.2-1.2
			c-1,0-1.2,0.5-1.2,0.8c0,0-0.1,0.3-0.1,0.4v2.2c0,0,0,1.3,1.3,1.3c0,0,0.9-0.1,1-0.9c0.1-0.5,0-0.8,0-0.8L116.9,20.9L116.9,20.9z
			 M116.1,19.1c0-0.1,0.1-0.5,0.4-0.5c0.3,0,0.4,0.5,0.4,0.5v0.5h-0.8V19.1z"/>
		<path id="XMLID_185_" class="st15" d="M111.9,0c-8.8,0-16,7.2-16,16s7.2,16,16,16s16-7.2,16-16S120.7,0,111.9,0z M113.4,9.3h0.8
			v3.6c0,0,0,0.3,0.3,0.3c0,0,0.4-0.1,0.5-0.4V9.3h0.8v4.5H115v-0.5c0,0-0.5,0.5-0.9,0.5c-0.4,0-0.6-0.3-0.6-0.6V9.3L113.4,9.3
			L113.4,9.3z M110.4,10.5c0-0.1,0-0.4,0-0.4c0.1-0.6,0.6-0.8,0.9-0.8c0.1,0,0.3,0,0.4,0c0.3,0,0.8,0.3,1,0.8c0,0,0,0.3,0,0.4v2.2
			c0,0,0,0.4-0.3,0.6c-0.1,0.3-0.4,0.4-0.8,0.5c-0.1,0-0.3,0-0.3,0c-0.4,0-0.6-0.3-0.9-0.5c-0.3-0.3-0.3-0.6-0.3-0.6v-2.2H110.4z
			 M108.2,7.8l0.6,2.3l0.6-2.3h0.9l-1.2,3.6v2.4h-0.9v-2.6L107,7.6h1v0.2H108.2z M118.4,23.4c-0.1,0.1-0.4,0.5-0.8,0.6
			c-0.9,0.1-3.3,0.3-5.6,0.3c-1.7,0-4.2,0-5.2-0.1c-1.9-0.1-1.8-2.6-1.8-4.6c0-0.9,0.1-2,0.3-3.1c0.4-1.7,1.4-1.4,2.9-1.5
			c0.1,0,1.4,0,3.7,0c3.6,0,4.6,0,5.6,0.1c1.5,0.3,1.4,2.6,1.4,4.5C118.9,21.8,118.9,22.7,118.4,23.4z"/>
	</g>
	<path id="XMLID_180_" class="st16" d="M47.9,0c-8.8,0-16,7.2-16,16s7.2,16,16,16s16-7.2,16-16S56.7,0,47.9,0z M47.3,22.4
		c-1.2,0.8-2.6,1.2-4,1.2c-4.1,0-7.6-3.3-7.6-7.6s3.3-7.6,7.6-7.6c1.9,0,3.7,0.8,5,1.9l-2,2c-0.8-0.6-1.8-1.2-2.9-1.2
		c-2.6,0-4.6,2-4.6,4.6s2,4.6,4.6,4.6c1.4,0,2.7-0.6,3.6-1.7c0.3-0.4,0.5-0.8,0.5-1.3h-4.1v-2.8h4.5l0,0l0,0h2.7
		c0,0.4,0.1,0.8,0.1,1.2C50.6,18.7,49.4,21.1,47.3,22.4z M57.1,16.6v3.1h-2v-3.1H52v-2h3.1v-2.9h2v3.1h3.1v1.9h-3.1V16.6z"/>
	<path id="XMLID_176_" class="st17" d="M47.9,32c-8.8,0-16,7.2-16,16s7.2,16,16,16s16-7.2,16-16S56.7,32,47.9,32z M47.3,54.4
		c-1.2,0.8-2.6,1.2-4,1.2c-4.1,0-7.6-3.3-7.6-7.6s3.3-7.6,7.6-7.6c1.9,0,3.7,0.8,5,1.9l-2,2c-0.8-0.6-1.8-1.2-2.9-1.2
		c-2.6,0-4.6,2-4.6,4.6c0,2.6,2,4.6,4.6,4.6c1.4,0,2.7-0.6,3.6-1.7c0.3-0.4,0.5-0.8,0.5-1.3h-4.1v-2.8h4.5l0,0l0,0h2.7
		c0,0.4,0.1,0.8,0.1,1.2C50.6,50.7,49.4,53.1,47.3,54.4z M57.1,48.6v3.1h-2v-3.1H52v-2h3.1v-3.1h2v3.1h3.1v2H57.1z"/>
	<g id="XMLID_166_">
		<ellipse id="XMLID_29_" class="st18" cx="269.6" cy="9.4" rx="2.1" ry="3"/>
		<path id="XMLID_28_" class="st18" d="M265.8,16.5c2.1-0.4,1.8-2.9,1.7-3.5c-0.1-0.8-1.1-2.3-2.4-2.2c-1.7,0.2-1.9,2.6-1.9,2.6
			C262.9,14.6,263.7,17,265.8,16.5z"/>
		<path id="XMLID_27_" class="st18" d="M274.6,12.5c1.5,0.2,2.5-1.4,2.7-2.7c0.2-1.2-0.8-2.7-1.9-2.9c-1.1-0.3-2.5,1.5-2.6,2.6
			C272.7,10.9,273.1,12.3,274.6,12.5z"/>
		<path id="XMLID_26_" class="st18" d="M268,20.9c-0.1,0.2-0.2,0.6-0.1,1c0.2,0.9,1,0.9,1,0.9h1.1v-2.7h-1.2
			C268.3,20.3,268,20.7,268,20.9z"/>
		<path id="XMLID_168_" class="st18" d="M278.4,19.9c0,0-2.4-1.8-3.8-3.8c-1.9-2.9-4.6-1.7-5.5-0.2c-0.9,1.5-2.3,2.4-2.5,2.7
			c-0.2,0.2-2.9,1.7-2.3,4.3c0.6,2.6,2.7,2.6,2.7,2.6s1.5,0.2,3.3-0.2c1.8-0.4,3.3,0.1,3.3,0.1s4.2,1.4,5.3-1.3
			C280.2,21.3,278.4,19.9,278.4,19.9z M271.2,23.9h-2.7c-1.2-0.2-1.6-1-1.7-1.2c-0.1-0.1-0.4-0.8-0.2-1.9c0.5-1.6,2-1.8,2-1.8h1.4
			v-1.8h1.2L271.2,23.9L271.2,23.9z M276.3,23.8h-3.1c-1.2-0.3-1.3-1.2-1.3-1.2v-3.5h1.3v3.1c0.1,0.3,0.5,0.4,0.5,0.4h1.3v-3.5h1.3
			L276.3,23.8L276.3,23.8z"/>
		<path id="XMLID_22_" class="st18" d="M280.7,14.6c0-0.6-0.5-2.4-2.3-2.4c-1.8,0-2.1,1.7-2.1,2.9c0,1.1,0.1,2.7,2.4,2.7
			S280.7,15.2,280.7,14.6z"/>
	</g>
	<g id="XMLID_161_">
		<path id="XMLID_21_" class="st19" d="M271.9,62.5c-8,0-14.5-6.5-14.5-14.5s6.5-14.5,14.5-14.5S286.4,40,286.4,48
			S279.9,62.5,271.9,62.5z"/>
		<path id="XMLID_162_" class="st13" d="M271.9,35c7.2,0,13,5.8,13,13s-5.8,13-13,13c-7.2,0-13-5.8-13-13S264.7,35,271.9,35
			 M271.9,32c-8.8,0-16,7.2-16,16s7.2,16,16,16c8.8,0,16-7.2,16-16S280.7,32,271.9,32L271.9,32z"/>
	</g>
	<g id="XMLID_151_">
		<ellipse id="XMLID_18_" class="st18" cx="269.6" cy="41.4" rx="2.1" ry="3"/>
		<path id="XMLID_17_" class="st18" d="M265.8,48.5c2.1-0.4,1.8-2.9,1.7-3.5c-0.1-0.8-1.1-2.3-2.4-2.2c-1.7,0.2-1.9,2.6-1.9,2.6
			C262.9,46.6,263.7,49,265.8,48.5z"/>
		<path id="XMLID_16_" class="st18" d="M274.6,44.5c1.5,0.2,2.5-1.4,2.7-2.7c0.2-1.2-0.8-2.7-1.9-2.9c-1.1-0.3-2.5,1.5-2.6,2.6
			C272.7,42.9,273.1,44.3,274.6,44.5z"/>
		<path id="XMLID_15_" class="st18" d="M268,52.9c-0.1,0.2-0.2,0.6-0.1,1c0.2,0.9,1,0.9,1,0.9h1.1v-2.7h-1.2
			C268.3,52.3,268,52.7,268,52.9z"/>
		<path id="XMLID_153_" class="st18" d="M278.4,51.9c0,0-2.4-1.8-3.8-3.8c-1.9-2.9-4.6-1.7-5.5-0.2c-0.9,1.5-2.3,2.4-2.5,2.7
			c-0.2,0.2-2.9,1.7-2.3,4.3c0.6,2.6,2.7,2.6,2.7,2.6s1.5,0.2,3.3-0.2c1.8-0.4,3.3,0.1,3.3,0.1s4.2,1.4,5.3-1.3
			C280.2,53.3,278.4,51.9,278.4,51.9z M271.2,55.9h-2.7c-1.2-0.2-1.6-1-1.7-1.2c-0.1-0.1-0.4-0.8-0.2-1.9c0.5-1.6,2-1.8,2-1.8h1.4
			v-1.8h1.2L271.2,55.9L271.2,55.9z M276.3,55.8h-3.1c-1.2-0.3-1.3-1.2-1.3-1.2v-3.5h1.3v3.1c0.1,0.3,0.5,0.4,0.5,0.4h1.3v-3.5h1.3
			L276.3,55.8L276.3,55.8z"/>
		<path id="XMLID_11_" class="st18" d="M280.7,46.6c0-0.6-0.5-2.4-2.3-2.4c-1.8,0-2.1,1.7-2.1,2.9c0,1.1,0.1,2.7,2.4,2.7
			S280.7,47.2,280.7,46.6z"/>
	</g>
	<g id="XMLID_145_">
		<path id="XMLID_147_" class="st20" d="M303.9,0c-8.8,0-16,7.2-16,16s7.2,16,16,16c8.8,0,16-7.2,16-16S312.7,0,303.9,0z M303.9,4.8
			c3.1,0,5.7,2.5,5.7,5.7c0,3.1-2.5,5.7-5.7,5.7c-3.1,0-5.7-2.5-5.7-5.7S300.8,4.8,303.9,4.8z M308.9,19.4c-1.2,0.8-2.9,1.1-3.9,1.2
			l0.9,0.9l3.3,3.3c0.5,0.5,0.5,1.3,0,1.8l-0.2,0.2c-0.5,0.5-1.3,0.5-1.8,0c-0.8-0.8-2.1-2.1-3.3-3.3l-3.3,3.3
			c-0.5,0.5-1.3,0.5-1.8,0l-0.2-0.2c-0.5-0.5-0.5-1.3,0-1.8c0.8-0.8,2.1-2.1,3.3-3.3l0.9-0.9c-1.1-0.1-2.8-0.4-4-1.2
			c-1.4-0.9-2-1.5-1.5-2.6c0.3-0.6,1.2-1.2,2.4-0.3c1.6,1.2,4.1,1.2,4.1,1.2s2.6,0,4.1-1.2c1.2-0.9,2.1-0.4,2.4,0.3
			C311,18,310.4,18.5,308.9,19.4z"/>
		<circle id="XMLID_7_" class="st20" cx="303.9" cy="10.5" r="2.8"/>
	</g>
	<path id="XMLID_6_" class="st0" d="M303.9,62.5c-8,0-14.5-6.5-14.5-14.5s6.5-14.5,14.5-14.5S318.4,40,318.4,48
		S311.9,62.5,303.9,62.5z"/>
	<g id="XMLID_138_">
		<path id="XMLID_140_" class="st21" d="M303.9,32c-8.8,0-16,7.2-16,16s7.2,16,16,16c8.8,0,16-7.2,16-16S312.7,32,303.9,32z
			 M303.9,36.8c3.1,0,5.7,2.5,5.7,5.7c0,3.1-2.5,5.7-5.7,5.7c-3.1,0-5.7-2.5-5.7-5.7S300.8,36.8,303.9,36.8z M308.9,51.4
			c-1.2,0.8-2.9,1.1-3.9,1.2l0.9,0.9l3.3,3.3c0.5,0.5,0.5,1.3,0,1.8l-0.2,0.2c-0.5,0.5-1.3,0.5-1.8,0c-0.8-0.8-2.1-2.1-3.3-3.3
			l-3.3,3.3c-0.5,0.5-1.3,0.5-1.8,0l-0.2-0.2c-0.5-0.5-0.5-1.3,0-1.8c0.8-0.8,2.1-2.1,3.3-3.3l0.9-0.9c-1.1-0.1-2.8-0.4-4-1.2
			c-1.4-0.9-2-1.5-1.5-2.6c0.3-0.6,1.2-1.2,2.4-0.3c1.6,1.2,4.1,1.2,4.1,1.2s2.6,0,4.1-1.2c1.2-0.9,2.1-0.4,2.4,0.3
			C311,50,310.4,50.5,308.9,51.4z"/>
		<circle id="XMLID_2_" class="st21" cx="303.9" cy="42.5" r="2.8"/>
	</g>
</g>
</svg>
